IDResults
version=1
nRows=10
nColumns=40
inDegrees=yes

Units are S.I. units (second, meters, Newtons, ...)
If the header above contains a line with 'inDegrees', this indicates whether rotational values are in degrees (yes) or radians (no).

endheader
time	pelvis_tilt	pelvis_list	pelvis_rotation	pelvis_tx	pelvis_ty	pelvis_tz	hip_flexion_r	hip_adduction_r	hip_rotation_r	knee_angle_r	knee_angle_r_beta	ankle_angle_r	subtalar_angle_r	mtp_angle_r	hip_flexion_l	hip_adduction_l	hip_rotation_l	knee_angle_l	knee_angle_l_beta	ankle_angle_l	subtalar_angle_l	mtp_angle_l	lumbar_extension	lumbar_bending	lumbar_rotation	arm_flex_r	arm_add_r	arm_rot_r	elbow_flex_r	pro_sup_r	wrist_flex_r	wrist_dev_r	arm_flex_l	arm_add_l	arm_rot_l	elbow_flex_l	pro_sup_l	wrist_flex_l	wrist_dev_l
      0.00000000	     -9.64313227	      0.90666768	      3.34931449	     -2.69075537	      1.00534051	      0.24742330	      2.62938148	      1.19566836	     -5.28472342	      8.48757580	      0.14813614	     12.39707220	      5.52889272	      0.00000000	     34.92349970	     -0.86004891	     -6.95821234	     39.14102772	      0.68313981	      5.28977602	      2.65385968	      0.00000000	     -3.62801704	      3.54783877	     -2.56657002	     -6.91082887	    -13.78013403	     10.53150393	     39.09200175	     81.04665019	      0.00000000	      0.00000000	    -15.24034538	     -7.66740649	     -0.21091435	     36.42767655	     73.70414842	      0.00000000	      0.00000000
      0.01000000	     -9.69202629	      1.04893792	      2.91229917	     -2.68589669	      1.00459450	      0.24761369	      2.35511493	      1.02484913	     -5.09246612	      8.41395066	      0.14685114	     12.58771678	      5.83025915	      0.00000000	     35.36298972	     -0.62498631	     -7.30151003	     37.93647282	      0.66211636	      4.98473884	      2.58281773	      0.00000000	     -3.81205284	      3.47073635	     -2.05647465	     -6.86150926	    -13.91069849	     10.47328942	     39.22264499	     80.94424900	      0.00000000	      0.00000000	    -15.44095097	     -7.57817111	      0.22419449	     36.27008078	     73.69041047	      0.00000000	      0.00000000
      0.02000000	     -9.71926283	      1.08290066	      2.74642029	     -2.68123669	      1.00377398	      0.24784374	      2.03822371	      1.01874219	     -4.72285485	      8.22388183	      0.14353382	     12.92446184	      5.88911666	      0.00000000	     35.85592668	     -0.38538935	     -7.35677095	     36.70109259	      0.64055490	      4.62858488	      2.57188138	      0.00000000	     -4.04000296	      3.46330011	     -1.82764676	     -6.72845441	    -13.99271737	     10.44325692	     39.36605084	     80.81638027	      0.00000000	      0.00000000	    -15.61700005	     -7.57686873	      0.62086207	     36.20192304	     73.71821289	      0.00000000	      0.00000000
      0.03000000	     -9.79541006	      1.00632380	      2.59621942	     -2.67658191	      1.00273226	      0.24812130	      1.77562524	      1.12233421	     -4.88079997	      8.19740348	      0.14307168	     12.76362358	      5.94678154	      0.00000000	     36.43103453	     -0.27888471	     -7.37308549	     35.41259919	      0.61806645	      4.09788574	      2.67442197	      0.00000000	     -4.22604033	      3.56263366	     -1.61950423	     -6.60507003	    -14.10704824	     10.49264826	     39.56951805	     80.79753413	      0.00000000	      0.00000000	    -15.79413374	     -7.47542899	      0.86048439	     36.07808424	     73.57604101	      0.00000000	      0.00000000
      0.04000000	     -9.87945219	      0.86105847	      2.46437418	     -2.67154774	      1.00143623	      0.24846883	      1.48223329	      1.31696549	     -4.82473541	      8.08702557	      0.14114522	     12.94031275	      6.04385831	      0.00000000	     36.97658157	     -0.22316296	     -7.19772563	     34.07709209	      0.59475746	      3.72093401	      2.87417192	      0.00000000	     -4.36304451	      3.71250840	     -1.40091985	     -6.48992327	    -14.20950165	     10.54912283	     39.69784132	     80.77901935	      0.00000000	      0.00000000	    -15.99025390	     -7.46927434	      1.17327421	     35.98593466	     73.71617490	      0.00000000	      0.00000000
      0.05000000	     -9.73933603	      1.09605798	      2.24195936	     -2.66604378	      1.00064124	      0.24851830	      0.85991326	      1.05516236	     -4.72304805	      7.87364335	      0.13742100	     13.17023191	      6.34638987	      0.00000000	     37.07401468	      0.21325163	     -7.17048014	     32.36591729	      0.56489182	      2.89980132	      2.91671282	      0.00000000	     -4.78007005	      3.46262600	     -1.10129560	     -6.36572378	    -14.30187389	     10.68610187	     39.84301866	     80.65108407	      0.00000000	      0.00000000	    -16.05273809	     -7.54259300	      2.16650450	     35.30725034	     74.47421668	      0.00000000	      0.00000000
      0.06000000	     -9.68146161	      1.13455928	      2.10348518	     -2.66051914	      0.99954072	      0.24863245	      0.33257447	      1.02612083	     -4.71077137	      7.66764108	      0.13382558	     13.34293137	      6.59752409	      0.00000000	     37.34935115	      0.46333133	     -7.00724824	     30.74439814	      0.53659097	      1.98692456	      2.93750503	      0.00000000	     -5.08996823	      3.39623289	     -0.90425908	     -6.23992475	    -14.39384720	     10.83276835	     39.99586322	     80.43818796	      0.00000000	      0.00000000	    -16.18469728	     -7.51231737	      1.99396846	     35.32041903	     75.58992124	      0.00000000	      0.00000000
      0.07000000	     -9.78142121	      0.85128480	      1.97774640	     -2.65497160	      0.99794389	      0.24908804	      0.07220228	      1.37753802	     -4.68588090	      7.61480717	      0.13290346	     13.57242704	      6.65954390	      0.00000000	     37.90207275	      0.33342991	     -6.68010048	     29.32377546	      0.51179643	      1.37386527	      3.33339140	      0.00000000	     -5.21026413	      3.65015353	     -0.68125353	     -6.14694569	    -14.50388104	     10.91609484	     40.16572108	     80.46253486	      0.00000000	      0.00000000	    -16.37055023	     -7.42989637	      2.03191493	     35.31638381	     75.63367266	      0.00000000	      0.00000000
      0.08000000	     -9.91467607	      0.66974105	      1.84552911	     -2.64921572	      0.99623972	      0.24944822	     -0.23990936	      1.63681373	     -4.67303241	      7.47576305	      0.13047668	     13.78376077	      6.60757010	      0.00000000	     38.42631340	      0.28679889	     -6.38736855	     27.81702850	      0.48549874	      0.57093639	      3.79591555	      0.00000000	     -5.29170630	      3.78207017	     -0.45977213	     -6.08883399	    -14.59936400	     11.02323042	     40.33231663	     80.48389639	      0.00000000	      0.00000000	    -16.54388531	     -7.35939242	      2.07229473	     35.23742834	     75.66468330	      0.00000000	      0.00000000
      0.09000000	     -9.91357652	      0.76708435	      1.75813068	     -2.64301270	      0.99492082	      0.24924862	     -0.73733128	      1.52213404	     -4.58085587	      7.29745562	      0.12736463	     13.74105354	      6.64170495	      0.00000000	     38.64335132	      0.53529342	     -6.24284574	     26.08053967	      0.45519129	     -0.60776700	      4.26203917	      0.00000000	     -5.51368164	      3.62638125	     -0.36554550	     -5.95103106	    -14.68048098	     11.21520725	     40.47170354	     80.50793049	      0.00000000	      0.00000000	    -16.62969849	     -7.27515610	      2.21096154	     34.83984670	     75.75386715	      0.00000000	      0.00000000
